<svg width="50" height="51" viewBox="0 0 50 51" fill="none" xmlns="http://www.w3.org/2000/svg">
<rect y="0.5" width="50" height="50" rx="25" fill="#EFEFF4"/>
<g clip-path="url(#clip0_1215_2652)">
<path d="M34.1665 21.3333V16.3333H29.1665" stroke="black" stroke-width="2" stroke-linecap="round" stroke-linejoin="round"/>
<path d="M28.3335 22.1667L34.1668 16.3333" stroke="black" stroke-width="1.5" stroke-linecap="round" stroke-linejoin="round"/>
<path d="M33.3332 29.6V32.1C33.3341 32.3321 33.2866 32.5618 33.1936 32.7745C33.1006 32.9871 32.9643 33.178 32.7933 33.3349C32.6222 33.4918 32.4203 33.6112 32.2005 33.6856C31.9806 33.76 31.7477 33.7876 31.5165 33.7667C28.9522 33.488 26.489 32.6118 24.3249 31.2083C22.3114 29.9289 20.6043 28.2218 19.3249 26.2083C17.9165 24.0343 17.0401 21.5592 16.7665 18.9833C16.7457 18.7529 16.7731 18.5206 16.8469 18.3014C16.9208 18.0821 17.0395 17.8806 17.1955 17.7097C17.3515 17.5388 17.5414 17.4023 17.753 17.3088C17.9647 17.2153 18.1935 17.1669 18.4249 17.1667H20.9249C21.3293 17.1627 21.7214 17.3059 22.028 17.5696C22.3346 17.8333 22.5349 18.1995 22.5915 18.6C22.697 19.4001 22.8927 20.1856 23.1749 20.9417C23.287 21.2399 23.3112 21.5641 23.2448 21.8757C23.1783 22.1874 23.0239 22.4734 22.7999 22.7L21.7415 23.7583C22.9278 25.8446 24.6552 27.572 26.7415 28.7583L27.7999 27.7C28.0264 27.476 28.3125 27.3216 28.6241 27.2551C28.9358 27.1886 29.2599 27.2129 29.5582 27.325C30.3143 27.6071 31.0998 27.8028 31.8999 27.9083C32.3047 27.9655 32.6744 28.1693 32.9386 28.4813C33.2029 28.7932 33.3433 29.1913 33.3332 29.6Z" stroke="black" stroke-width="1.5" stroke-linecap="round" stroke-linejoin="round"/>
</g>
<defs>
<clipPath id="clip0_1215_2652">
<rect width="20" height="20" fill="white" transform="translate(15 15.5)"/>
</clipPath>
</defs>
</svg>
