<svg width="1376" height="259" viewBox="0 0 1376 259" fill="none" xmlns="http://www.w3.org/2000/svg">
<path fill-rule="evenodd" clip-rule="evenodd" d="M655.263 0.21875V228.589H661.861V0.21875H655.263ZM54.1476 51.5314C22.9895 60.7791 0.262695 89.6306 0.262695 123.79C0.262695 165.412 34.0042 199.154 75.6264 199.154C117.249 199.154 150.99 165.412 150.99 123.79C150.99 99.223 139.235 77.4014 121.043 63.643L140.771 58.3569L133.256 30.3125L56.9601 50.756C56.0792 50.9805 55.2042 51.23 54.33 51.4794L54.1476 51.5314ZM121.956 123.79C121.956 149.378 101.214 170.12 75.6264 170.12C50.039 170.12 29.2964 149.378 29.2964 123.79C29.2964 98.2028 50.039 77.4602 75.6264 77.4602C101.214 77.4602 121.956 98.2028 121.956 123.79ZM306.192 123.79C306.192 89.6306 328.919 60.7791 360.077 51.5314L360.396 51.4406C361.418 51.1496 362.035 50.9737 362.89 50.756L439.186 30.3125L446.7 58.3569L426.972 63.643C445.164 77.4014 456.919 99.223 456.919 123.79C456.919 165.412 423.178 199.154 381.556 199.154C339.934 199.154 306.192 165.412 306.192 123.79ZM381.556 170.12C407.143 170.12 427.886 149.378 427.886 123.79C427.886 98.2028 407.143 77.4602 381.556 77.4602C355.968 77.4602 335.226 98.2028 335.226 123.79C335.226 149.378 355.968 170.12 381.556 170.12ZM574.99 118.545C574.99 139.63 557.63 157.259 535.55 157.259C513.47 157.259 496.11 139.63 496.11 118.545C496.11 97.4608 513.47 79.8317 535.55 79.8317C557.63 79.8317 574.99 97.4608 574.99 118.545ZM604.942 118.545C604.942 156.468 573.874 187.211 535.55 187.211C497.225 187.211 466.157 156.468 466.157 118.545C466.157 80.6222 497.225 49.8795 535.55 49.8795C573.874 49.8795 604.942 80.6222 604.942 118.545ZM328.687 214.894C340.68 221.818 353.918 226.312 367.648 228.119C381.374 229.926 395.322 229.013 408.695 225.43L408.703 225.428L416.38 254.079L416.358 254.085C406.912 256.614 397.241 258.104 387.518 258.544C379.609 258.902 371.664 258.565 363.776 257.527C355.888 256.488 348.127 254.758 340.579 252.365C331.298 249.422 322.34 245.478 313.867 240.587L313.857 240.581L328.687 214.894ZM268.586 118.545C268.586 139.63 251.227 157.259 229.146 157.259C207.066 157.259 189.706 139.63 189.706 118.545C189.706 97.4608 207.066 79.8317 229.146 79.8317C251.227 79.8317 268.586 97.4608 268.586 118.545ZM298.539 118.545C298.539 156.468 267.471 187.211 229.146 187.211C190.822 187.211 159.754 156.468 159.754 118.545C159.754 80.6222 190.822 49.8795 229.146 49.8795C267.471 49.8795 298.539 80.6222 298.539 118.545ZM61.7181 228.119C47.9891 226.312 34.7504 221.818 22.7581 214.894L7.92749 240.581L7.93801 240.587C16.4106 245.478 25.3686 249.422 34.6496 252.365C42.1974 254.758 49.9588 256.488 57.8466 257.527C65.7343 258.565 73.6792 258.902 81.5891 258.544C91.312 258.104 100.982 256.614 110.429 254.085L110.45 254.079L102.774 225.428L102.765 225.43C89.3921 229.013 75.4444 229.926 61.7181 228.119ZM1374.32 99.2227V105.443H1360.1V151.21C1360.1 154.384 1360.52 156.775 1361.37 158.383C1362.22 159.991 1363.32 161.07 1364.67 161.62C1366.02 162.17 1367.48 162.445 1369.05 162.445C1370.19 162.445 1371.29 162.382 1372.35 162.255C1373.41 162.086 1374.36 161.916 1375.21 161.747L1375.52 168.158C1374.59 168.454 1373.39 168.687 1371.91 168.856C1370.43 169.068 1368.94 169.174 1367.46 169.174C1364.54 169.174 1361.96 168.645 1359.72 167.587C1357.48 166.487 1355.72 164.625 1354.45 162.001C1353.18 159.335 1352.55 155.717 1352.55 151.146V105.443H1339.91V99.2227H1352.55V81.5762H1360.1V99.2227H1374.32ZM1300.43 166.698C1304.19 168.349 1308.32 169.174 1312.8 169.174C1316.91 169.174 1320.51 168.624 1323.6 167.523C1326.68 166.423 1329.33 164.942 1331.53 163.08C1333.77 161.218 1335.63 159.187 1337.12 156.986L1332.35 153.305C1329.86 156.563 1327.04 158.954 1323.91 160.478C1320.78 161.959 1317.18 162.699 1313.12 162.699C1309.65 162.699 1306.48 162.001 1303.6 160.604C1300.72 159.208 1298.23 157.261 1296.11 154.765C1294.04 152.268 1292.43 149.39 1291.29 146.132C1290.19 142.831 1289.64 139.276 1289.64 135.468V134.071H1338.58V129.438C1338.58 124.825 1337.98 120.614 1336.8 116.806C1335.61 112.955 1333.86 109.633 1331.53 106.84C1329.24 104.005 1326.41 101.825 1323.02 100.302C1319.64 98.736 1315.77 97.9531 1311.41 97.9531C1307.51 97.9531 1303.79 98.7783 1300.24 100.429C1296.72 102.037 1293.59 104.364 1290.84 107.411C1288.09 110.458 1285.93 114.118 1284.37 118.393C1282.8 122.667 1282.02 127.449 1282.02 132.738V135.468C1282.02 140.377 1282.76 144.905 1284.24 149.052C1285.76 153.157 1287.9 156.711 1290.65 159.716C1293.44 162.72 1296.7 165.048 1300.43 166.698ZM1289.91 127.597H1331.02V126.708C1330.94 122.857 1330.15 119.26 1328.67 115.917C1327.23 112.532 1325.08 109.781 1322.2 107.665C1319.32 105.549 1315.72 104.491 1311.41 104.491C1308.19 104.491 1305.23 105.168 1302.52 106.522C1299.85 107.877 1297.55 109.823 1295.6 112.362C1293.7 114.859 1292.22 117.842 1291.16 121.312C1290.58 123.282 1290.16 125.376 1289.91 127.597ZM1236.56 70.4043V132.747L1243.74 124.994L1270.08 99.2227H1279.66L1250.51 128.143L1282.2 167.904H1273.06L1245.24 133.315L1236.56 141.712V167.904H1229.01V70.4043H1236.56ZM1197.95 109.971C1198.44 109.01 1198.97 108.093 1199.55 107.221C1201.5 104.301 1203.93 102.037 1206.85 100.429C1209.81 98.7783 1213.28 97.9531 1217.26 97.9531C1218.23 97.9531 1219.19 98.0378 1220.12 98.207C1221.09 98.334 1221.81 98.5033 1222.28 98.7148L1222.09 105.697C1221.24 105.57 1220.41 105.465 1219.61 105.38C1218.81 105.295 1217.94 105.253 1217.01 105.253C1213.71 105.253 1210.81 105.867 1208.31 107.094C1205.86 108.279 1203.78 109.95 1202.09 112.108C1200.4 114.224 1199.11 116.721 1198.22 119.599C1198.13 119.881 1198.05 120.165 1197.96 120.451V167.904H1190.41V99.2227H1197.77L1197.95 109.971ZM1163.43 162.699C1165.1 161.303 1166.54 159.842 1167.75 158.315C1167.81 159.565 1167.92 160.857 1168.06 162.191C1168.36 164.477 1168.76 166.381 1169.27 167.904H1177.33V167.143C1176.65 165.492 1176.12 163.397 1175.74 160.858C1175.4 158.319 1175.24 155.865 1175.24 153.495V120.297C1175.24 115.303 1174.18 111.156 1172.06 107.855C1169.95 104.555 1167 102.079 1163.24 100.429C1159.51 98.7783 1155.2 97.9531 1150.29 97.9531C1146.4 97.9531 1142.82 98.5244 1139.56 99.667C1136.35 100.767 1133.57 102.27 1131.25 104.174C1128.92 106.078 1127.12 108.236 1125.85 110.648C1124.58 113.061 1123.95 115.557 1123.95 118.139L1131.56 118.202C1131.56 115.663 1132.35 113.357 1133.91 111.283C1135.52 109.167 1137.7 107.496 1140.45 106.269C1143.24 104.999 1146.42 104.364 1149.97 104.364C1153.82 104.364 1157.06 104.999 1159.68 106.269C1162.31 107.538 1164.3 109.358 1165.65 111.728C1167 114.097 1167.68 116.911 1167.68 120.17V127.914H1153.65C1148.83 127.914 1144.47 128.422 1140.58 129.438C1136.73 130.411 1133.43 131.85 1130.67 133.754C1127.97 135.616 1125.89 137.901 1124.45 140.609C1123.02 143.275 1122.3 146.301 1122.3 149.687C1122.3 153.41 1123.21 156.754 1125.03 159.716C1126.89 162.636 1129.47 164.942 1132.77 166.635C1136.11 168.327 1140.03 169.174 1144.51 169.174C1148.49 169.174 1152.05 168.581 1155.18 167.396C1158.35 166.169 1161.1 164.604 1163.43 162.699ZM1164.57 153.876C1165.87 152.315 1166.91 150.667 1167.68 148.93V133.754H1154.67C1150.78 133.754 1147.28 134.114 1144.2 134.833C1141.15 135.51 1138.57 136.526 1136.45 137.88C1134.34 139.192 1132.71 140.779 1131.56 142.641C1130.46 144.503 1129.91 146.618 1129.91 148.988C1129.91 151.443 1130.53 153.686 1131.75 155.717C1133.02 157.748 1134.8 159.377 1137.09 160.604C1139.41 161.789 1142.16 162.382 1145.34 162.382C1149.57 162.382 1153.29 161.599 1156.51 160.033C1159.77 158.467 1162.46 156.415 1164.57 153.876ZM1030.69 75.4824H1027.33H1022.82H1020.41V167.904H1028.16V127.533L1027.51 86.5684L1061.86 167.904H1067.83L1102.3 86.2885L1101.6 127.533V167.904H1109.41V75.4824H1106.87H1102.49H1099.06L1064.84 156.859L1030.69 75.4824ZM946.773 134.643V132.548C946.773 127.554 947.492 122.942 948.931 118.71C950.37 114.478 952.422 110.818 955.088 107.729C957.797 104.639 961.034 102.248 964.8 100.556C968.567 98.8206 972.756 97.9531 977.369 97.9531C982.024 97.9531 986.234 98.8206 990 100.556C993.767 102.248 997.004 104.639 999.712 107.729C1002.42 110.818 1004.49 114.478 1005.93 118.71C1007.37 122.942 1008.09 127.554 1008.09 132.548V134.643C1008.09 139.636 1007.37 144.249 1005.93 148.48C1004.49 152.67 1002.42 156.309 999.712 159.398C997.046 162.488 993.83 164.9 990.064 166.635C986.298 168.327 982.108 169.174 977.496 169.174C972.841 169.174 968.63 168.327 964.864 166.635C961.097 164.9 957.86 162.488 955.152 159.398C952.444 156.309 950.37 152.67 948.931 148.48C947.492 144.249 946.773 139.636 946.773 134.643ZM954.327 132.548V134.643C954.327 138.409 954.834 141.985 955.85 145.37C956.866 148.713 958.347 151.697 960.293 154.32C962.24 156.902 964.652 158.933 967.53 160.414C970.407 161.895 973.729 162.636 977.496 162.636C981.22 162.636 984.499 161.895 987.334 160.414C990.212 158.933 992.624 156.902 994.571 154.32C996.517 151.697 997.977 148.713 998.951 145.37C999.966 141.985 1000.47 138.409 1000.47 134.643V132.548C1000.47 128.824 999.966 125.29 998.951 121.947C997.977 118.604 996.496 115.621 994.507 112.997C992.561 110.373 990.149 108.3 987.271 106.776C984.393 105.253 981.093 104.491 977.369 104.491C973.645 104.491 970.344 105.253 967.466 106.776C964.631 108.3 962.219 110.373 960.23 112.997C958.283 115.621 956.802 118.604 955.787 121.947C954.813 125.29 954.327 128.824 954.327 132.548ZM935.596 156.859V123.979H903.033V130.644H927.852V154.447C926.963 155.548 925.503 156.732 923.472 158.002C921.483 159.229 918.838 160.287 915.538 161.176C912.237 162.064 908.238 162.509 903.541 162.509C899.139 162.509 895.14 161.684 891.543 160.033C887.946 158.34 884.857 155.928 882.276 152.797C879.695 149.665 877.706 145.92 876.309 141.562C874.955 137.203 874.278 132.315 874.278 126.898V115.6C874.278 110.395 874.891 105.676 876.119 101.444C877.346 97.1702 879.144 93.5098 881.514 90.4629C883.884 87.416 886.804 85.0674 890.274 83.417C893.786 81.7666 897.785 80.9414 902.271 80.9414C907.857 80.9414 912.406 81.8936 915.918 83.7979C919.473 85.7021 922.181 88.2201 924.043 91.3516C925.905 94.4408 927.133 97.8262 927.725 101.508H935.533C934.898 96.3027 933.248 91.6478 930.582 87.543C927.958 83.3958 924.297 80.1374 919.6 77.7676C914.903 75.3978 909.126 74.2129 902.271 74.2129C896.77 74.2129 891.797 75.1862 887.354 77.1328C882.953 79.0371 879.187 81.8089 876.055 85.4482C872.924 89.0876 870.533 93.4674 868.882 98.5879C867.232 103.666 866.407 109.379 866.407 115.727V126.898C866.407 133.373 867.295 139.213 869.073 144.418C870.892 149.623 873.453 154.088 876.753 157.812C880.096 161.493 884.032 164.307 888.56 166.254C893.088 168.201 898.06 169.174 903.477 169.174C909.952 169.174 915.368 168.476 919.727 167.079C924.086 165.64 927.556 163.969 930.137 162.064C932.719 160.16 934.538 158.425 935.596 156.859ZM795.308 134.643V132.548C795.308 127.554 796.027 122.942 797.466 118.71C798.905 114.478 800.957 110.818 803.623 107.729C806.331 104.639 809.569 102.248 813.335 100.556C817.101 98.8206 821.291 97.9531 825.903 97.9531C830.558 97.9531 834.769 98.8206 838.535 100.556C842.301 102.248 845.539 104.639 848.247 107.729C850.955 110.818 853.029 114.478 854.468 118.71C855.907 122.942 856.626 127.554 856.626 132.548V134.643C856.626 139.636 855.907 144.249 854.468 148.48C853.029 152.67 850.955 156.309 848.247 159.398C845.581 162.488 842.365 164.9 838.599 166.635C834.832 168.327 830.643 169.174 826.03 169.174C821.375 169.174 817.165 168.327 813.398 166.635C809.632 164.9 806.395 162.488 803.687 159.398C800.978 156.309 798.905 152.67 797.466 148.48C796.027 144.249 795.308 139.636 795.308 134.643ZM802.861 132.548V134.643C802.861 138.409 803.369 141.985 804.385 145.37C805.4 148.713 806.882 151.697 808.828 154.32C810.775 156.902 813.187 158.933 816.064 160.414C818.942 161.895 822.264 162.636 826.03 162.636C829.754 162.636 833.034 161.895 835.869 160.414C838.747 158.933 841.159 156.902 843.105 154.32C845.052 151.697 846.512 148.713 847.485 145.37C848.501 141.985 849.009 138.409 849.009 134.643V132.548C849.009 128.824 848.501 125.29 847.485 121.947C846.512 118.604 845.031 115.621 843.042 112.997C841.095 110.373 838.683 108.3 835.806 106.776C832.928 105.253 829.627 104.491 825.903 104.491C822.179 104.491 818.879 105.253 816.001 106.776C813.166 108.3 810.754 110.373 808.765 112.997C806.818 115.621 805.337 118.604 804.321 121.947C803.348 125.29 802.861 128.824 802.861 132.548ZM784.131 156.859V123.979H751.567V130.644H776.387V154.447C775.498 155.548 774.038 156.732 772.007 158.002C770.018 159.229 767.373 160.287 764.072 161.176C760.771 162.064 756.772 162.509 752.075 162.509C747.674 162.509 743.675 161.684 740.078 160.033C736.481 158.34 733.392 155.928 730.811 152.797C728.229 149.665 726.24 145.92 724.844 141.562C723.49 137.203 722.812 132.315 722.812 126.898V115.6C722.812 110.395 723.426 105.676 724.653 101.444C725.881 97.1702 727.679 93.5098 730.049 90.4629C732.419 87.416 735.339 85.0674 738.809 83.417C742.321 81.7666 746.32 80.9414 750.806 80.9414C756.392 80.9414 760.941 81.8936 764.453 83.7979C768.008 85.7021 770.716 88.2201 772.578 91.3516C774.44 94.4408 775.667 97.8262 776.26 101.508H784.067C783.433 96.3027 781.782 91.6478 779.116 87.543C776.492 83.3958 772.832 80.1374 768.135 77.7676C763.438 75.3978 757.661 74.2129 750.806 74.2129C745.304 74.2129 740.332 75.1862 735.889 77.1328C731.488 79.0371 727.721 81.8089 724.59 85.4482C721.458 89.0876 719.067 93.4674 717.417 98.5879C715.767 103.666 714.941 109.379 714.941 115.727V126.898C714.941 133.373 715.83 139.213 717.607 144.418C719.427 149.623 721.987 154.088 725.288 157.812C728.631 161.493 732.567 164.307 737.095 166.254C741.623 168.201 746.595 169.174 752.012 169.174C758.486 169.174 763.903 168.476 768.262 167.079C772.62 165.64 776.091 163.969 778.672 162.064C781.253 160.16 783.073 158.425 784.131 156.859Z" fill="url(#paint0_linear_250_447)"/>
<defs>
<linearGradient id="paint0_linear_250_447" x1="273.87" y1="81.1173" x2="273.87" y2="167.904" gradientUnits="userSpaceOnUse">
<stop stop-color="#FF690E"/>
<stop offset="1" stop-color="#FE3C00"/>
</linearGradient>
</defs>
</svg>
