<svg width="273" height="274" viewBox="0 0 273 274" fill="none" xmlns="http://www.w3.org/2000/svg">
<path fill-rule="evenodd" clip-rule="evenodd" d="M9.72351 5.25997C7.34917 5.25997 5.42434 7.1848 5.42434 9.55914V23.3166C5.42434 24.7413 4.26942 25.8961 2.84478 25.8961C1.42016 25.8961 1.3132 25.9011 0.265259 25.9011V9.55914C0.265259 4.33547 4.49985 0.100885 9.72351 0.100885L26.0584 0.10083C26.0584 1.30155 26.0605 1.25578 26.0605 2.68041C26.0605 4.10505 24.9056 5.25997 23.481 5.25997H9.72351Z" fill="black"/>
<path fill-rule="evenodd" clip-rule="evenodd" d="M9.72351 5.25997C7.34917 5.25997 5.42434 7.1848 5.42434 9.55914V23.3166C5.42434 24.7413 4.26942 25.8961 2.84478 25.8961C1.42016 25.8961 1.3132 25.9011 0.265259 25.9011V9.55914C0.265259 4.33547 4.49985 0.100885 9.72351 0.100885L26.0584 0.10083C26.0584 1.30155 26.0605 1.25578 26.0605 2.68041C26.0605 4.10505 24.9056 5.25997 23.481 5.25997H9.72351Z" fill="white"/>
<path fill-rule="evenodd" clip-rule="evenodd" d="M9.72351 268.74C7.34917 268.74 5.42434 266.815 5.42434 264.441V250.683C5.42434 249.258 4.26942 248.104 2.84478 248.104C1.42016 248.104 1.3132 248.099 0.265259 248.099V264.441C0.265259 269.664 4.49985 273.899 9.72351 273.899L26.0584 273.899C26.0584 272.698 26.0605 272.744 26.0605 271.319C26.0605 269.895 24.9056 268.74 23.481 268.74H9.72351Z" fill="black"/>
<path fill-rule="evenodd" clip-rule="evenodd" d="M9.72351 268.74C7.34917 268.74 5.42434 266.815 5.42434 264.441V250.683C5.42434 249.258 4.26942 248.104 2.84478 248.104C1.42016 248.104 1.3132 248.099 0.265259 248.099V264.441C0.265259 269.664 4.49985 273.899 9.72351 273.899L26.0584 273.899C26.0584 272.698 26.0605 272.744 26.0605 271.319C26.0605 269.895 24.9056 268.74 23.481 268.74H9.72351Z" fill="white"/>
<path fill-rule="evenodd" clip-rule="evenodd" d="M267.576 9.56152C267.576 7.18718 265.651 5.26236 263.276 5.26236L249.519 5.26236C248.094 5.26236 246.939 4.10743 246.939 2.6828C246.939 1.25817 246.935 1.15121 246.935 0.10327L263.276 0.103271C268.5 0.103271 272.735 4.33786 272.735 9.56152L272.735 25.8964C271.534 25.8964 271.58 25.8985 270.155 25.8985C268.731 25.8985 267.576 24.7436 267.576 23.319L267.576 9.56152Z" fill="black"/>
<path fill-rule="evenodd" clip-rule="evenodd" d="M267.576 9.56152C267.576 7.18718 265.651 5.26236 263.276 5.26236L249.519 5.26236C248.094 5.26236 246.939 4.10743 246.939 2.6828C246.939 1.25817 246.935 1.15121 246.935 0.10327L263.276 0.103271C268.5 0.103271 272.735 4.33786 272.735 9.56152L272.735 25.8964C271.534 25.8964 271.58 25.8985 270.155 25.8985C268.731 25.8985 267.576 24.7436 267.576 23.319L267.576 9.56152Z" fill="white"/>
<path fill-rule="evenodd" clip-rule="evenodd" d="M267.576 264.438C267.576 266.813 265.651 268.737 263.276 268.737L249.519 268.737C248.094 268.737 246.939 269.892 246.939 271.317C246.939 272.742 246.935 272.849 246.935 273.896L263.276 273.896C268.5 273.896 272.735 269.662 272.735 264.438L272.735 248.103C271.534 248.103 271.58 248.101 270.155 248.101C268.731 248.101 267.576 249.256 267.576 250.681L267.576 264.438Z" fill="black"/>
<path fill-rule="evenodd" clip-rule="evenodd" d="M267.576 264.438C267.576 266.813 265.651 268.737 263.276 268.737L249.519 268.737C248.094 268.737 246.939 269.892 246.939 271.317C246.939 272.742 246.935 272.849 246.935 273.896L263.276 273.896C268.5 273.896 272.735 269.662 272.735 264.438L272.735 248.103C271.534 248.103 271.58 248.101 270.155 248.101C268.731 248.101 267.576 249.256 267.576 250.681L267.576 264.438Z" fill="white"/>
</svg>
