<svg width="50" height="50" viewBox="0 0 50 50" fill="none" xmlns="http://www.w3.org/2000/svg">
<rect width="50" height="50" rx="25" fill="#FF690E"/>
<path fill-rule="evenodd" clip-rule="evenodd" d="M17.7325 19.7674C17.7325 18.9647 18.3832 18.3139 19.186 18.3139H22.6744C23.4771 18.3139 24.1279 18.9647 24.1279 19.7674V23.2558C24.1279 24.0585 23.4771 24.7093 22.6744 24.7093H19.186C18.3832 24.7093 17.7325 24.0585 17.7325 23.2558V19.7674ZM19.4767 20.0581V22.9651H22.3837V20.0581H19.4767Z" fill="black"/>
<path fill-rule="evenodd" clip-rule="evenodd" d="M17.7325 19.7674C17.7325 18.9647 18.3832 18.3139 19.186 18.3139H22.6744C23.4771 18.3139 24.1279 18.9647 24.1279 19.7674V23.2558C24.1279 24.0585 23.4771 24.7093 22.6744 24.7093H19.186C18.3832 24.7093 17.7325 24.0585 17.7325 23.2558V19.7674ZM19.4767 20.0581V22.9651H22.3837V20.0581H19.4767Z" fill="white"/>
<path fill-rule="evenodd" clip-rule="evenodd" d="M17.7325 27.907C17.7325 27.1043 18.3832 26.4535 19.186 26.4535H22.6744C23.4771 26.4535 24.1279 27.1043 24.1279 27.907V31.3954C24.1279 32.1981 23.4771 32.8489 22.6744 32.8489H19.186C18.3832 32.8489 17.7325 32.1981 17.7325 31.3954V27.907ZM19.4767 28.1977V31.1047H22.3837V28.1977H19.4767Z" fill="black"/>
<path fill-rule="evenodd" clip-rule="evenodd" d="M17.7325 27.907C17.7325 27.1043 18.3832 26.4535 19.186 26.4535H22.6744C23.4771 26.4535 24.1279 27.1043 24.1279 27.907V31.3954C24.1279 32.1981 23.4771 32.8489 22.6744 32.8489H19.186C18.3832 32.8489 17.7325 32.1981 17.7325 31.3954V27.907ZM19.4767 28.1977V31.1047H22.3837V28.1977H19.4767Z" fill="white"/>
<path fill-rule="evenodd" clip-rule="evenodd" d="M25.8718 19.7674C25.8718 18.9647 26.5225 18.3139 27.3253 18.3139H30.8136C31.6164 18.3139 32.2671 18.9647 32.2671 19.7674V23.2558C32.2671 24.0585 31.6164 24.7093 30.8136 24.7093H27.3253C26.5225 24.7093 25.8718 24.0585 25.8718 23.2558V19.7674ZM27.616 20.0581V22.9651H30.523V20.0581H27.616Z" fill="black"/>
<path fill-rule="evenodd" clip-rule="evenodd" d="M25.8718 19.7674C25.8718 18.9647 26.5225 18.3139 27.3253 18.3139H30.8136C31.6164 18.3139 32.2671 18.9647 32.2671 19.7674V23.2558C32.2671 24.0585 31.6164 24.7093 30.8136 24.7093H27.3253C26.5225 24.7093 25.8718 24.0585 25.8718 23.2558V19.7674ZM27.616 20.0581V22.9651H30.523V20.0581H27.616Z" fill="white"/>
<path d="M26.163 27.3256C26.163 27.0045 26.4233 26.7442 26.7444 26.7442H27.9072C28.2283 26.7442 28.4886 27.0045 28.4886 27.3256V28.4884C28.4886 28.8095 28.2283 29.0698 27.9072 29.0698H26.7444C26.4233 29.0698 26.163 28.8095 26.163 28.4884V27.3256Z" fill="black"/>
<path d="M26.163 27.3256C26.163 27.0045 26.4233 26.7442 26.7444 26.7442H27.9072C28.2283 26.7442 28.4886 27.0045 28.4886 27.3256V28.4884C28.4886 28.8095 28.2283 29.0698 27.9072 29.0698H26.7444C26.4233 29.0698 26.163 28.8095 26.163 28.4884V27.3256Z" fill="white"/>
<path d="M29.6511 27.3256C29.6511 27.0045 29.9114 26.7442 30.2325 26.7442H31.3953C31.7164 26.7442 31.9767 27.0045 31.9767 27.3256V28.4884C31.9767 28.8095 31.7164 29.0698 31.3953 29.0698H30.2325C29.9114 29.0698 29.6511 28.8095 29.6511 28.4884V27.3256Z" fill="black"/>
<path d="M29.6511 27.3256C29.6511 27.0045 29.9114 26.7442 30.2325 26.7442H31.3953C31.7164 26.7442 31.9767 27.0045 31.9767 27.3256V28.4884C31.9767 28.8095 31.7164 29.0698 31.3953 29.0698H30.2325C29.9114 29.0698 29.6511 28.8095 29.6511 28.4884V27.3256Z" fill="white"/>
<path d="M29.6511 30.8139C29.6511 30.4929 29.9114 30.2326 30.2325 30.2326H31.3953C31.7164 30.2326 31.9767 30.4929 31.9767 30.8139V31.9768C31.9767 32.2978 31.7164 32.5581 31.3953 32.5581H30.2325C29.9114 32.5581 29.6511 32.2978 29.6511 31.9768V30.8139Z" fill="black"/>
<path d="M29.6511 30.8139C29.6511 30.4929 29.9114 30.2326 30.2325 30.2326H31.3953C31.7164 30.2326 31.9767 30.4929 31.9767 30.8139V31.9768C31.9767 32.2978 31.7164 32.5581 31.3953 32.5581H30.2325C29.9114 32.5581 29.6511 32.2978 29.6511 31.9768V30.8139Z" fill="white"/>
<path d="M26.163 30.8139C26.163 30.4929 26.4233 30.2326 26.7444 30.2326H27.9072C28.2283 30.2326 28.4886 30.4929 28.4886 30.8139V31.9768C28.4886 32.2978 28.2283 32.5581 27.9072 32.5581H26.7444C26.4233 32.5581 26.163 32.2978 26.163 31.9768V30.8139Z" fill="black"/>
<path d="M26.163 30.8139C26.163 30.4929 26.4233 30.2326 26.7444 30.2326H27.9072C28.2283 30.2326 28.4886 30.4929 28.4886 30.8139V31.9768C28.4886 32.2978 28.2283 32.5581 27.9072 32.5581H26.7444C26.4233 32.5581 26.163 32.2978 26.163 31.9768V30.8139Z" fill="white"/>
<path fill-rule="evenodd" clip-rule="evenodd" d="M15.6977 14.2442C14.8949 14.2442 14.2442 14.8949 14.2442 15.6977V20.3488C14.2442 20.8305 13.8537 21.2209 13.3721 21.2209C12.8905 21.2209 12.5 20.8305 12.5 20.3488V15.6977C12.5 13.9316 13.9316 12.5 15.6977 12.5H20.3488C20.8305 12.5 21.2209 12.8905 21.2209 13.3721C21.2209 13.8537 20.8305 14.2442 20.3488 14.2442H15.6977ZM28.7791 13.3721C28.7791 12.8905 29.1695 12.5 29.6512 12.5H34.3023C36.0684 12.5 37.5 13.9316 37.5 15.6977V20.3488C37.5 20.8305 37.1096 21.2209 36.6279 21.2209C36.1463 21.2209 35.7558 20.8305 35.7558 20.3488V15.6977C35.7558 14.8949 35.1051 14.2442 34.3023 14.2442H29.6512C29.1695 14.2442 28.7791 13.8537 28.7791 13.3721ZM13.3721 28.7791C13.8537 28.7791 14.2442 29.1695 14.2442 29.6512V34.3023C14.2442 35.1051 14.8949 35.7558 15.6977 35.7558H20.3488C20.8305 35.7558 21.2209 36.1463 21.2209 36.6279C21.2209 37.1096 20.8305 37.5 20.3488 37.5H15.6977C13.9316 37.5 12.5 36.0684 12.5 34.3023V29.6512C12.5 29.1695 12.8905 28.7791 13.3721 28.7791ZM36.6279 28.7791C37.1096 28.7791 37.5 29.1695 37.5 29.6512V34.3023C37.5 36.0684 36.0684 37.5 34.3023 37.5H29.6512C29.1695 37.5 28.7791 37.1096 28.7791 36.6279C28.7791 36.1463 29.1695 35.7558 29.6512 35.7558H34.3023C35.1051 35.7558 35.7558 35.1051 35.7558 34.3023V29.6512C35.7558 29.1695 36.1463 28.7791 36.6279 28.7791Z" fill="black"/>
<path fill-rule="evenodd" clip-rule="evenodd" d="M15.6977 14.2442C14.8949 14.2442 14.2442 14.8949 14.2442 15.6977V20.3488C14.2442 20.8305 13.8537 21.2209 13.3721 21.2209C12.8905 21.2209 12.5 20.8305 12.5 20.3488V15.6977C12.5 13.9316 13.9316 12.5 15.6977 12.5H20.3488C20.8305 12.5 21.2209 12.8905 21.2209 13.3721C21.2209 13.8537 20.8305 14.2442 20.3488 14.2442H15.6977ZM28.7791 13.3721C28.7791 12.8905 29.1695 12.5 29.6512 12.5H34.3023C36.0684 12.5 37.5 13.9316 37.5 15.6977V20.3488C37.5 20.8305 37.1096 21.2209 36.6279 21.2209C36.1463 21.2209 35.7558 20.8305 35.7558 20.3488V15.6977C35.7558 14.8949 35.1051 14.2442 34.3023 14.2442H29.6512C29.1695 14.2442 28.7791 13.8537 28.7791 13.3721ZM13.3721 28.7791C13.8537 28.7791 14.2442 29.1695 14.2442 29.6512V34.3023C14.2442 35.1051 14.8949 35.7558 15.6977 35.7558H20.3488C20.8305 35.7558 21.2209 36.1463 21.2209 36.6279C21.2209 37.1096 20.8305 37.5 20.3488 37.5H15.6977C13.9316 37.5 12.5 36.0684 12.5 34.3023V29.6512C12.5 29.1695 12.8905 28.7791 13.3721 28.7791ZM36.6279 28.7791C37.1096 28.7791 37.5 29.1695 37.5 29.6512V34.3023C37.5 36.0684 36.0684 37.5 34.3023 37.5H29.6512C29.1695 37.5 28.7791 37.1096 28.7791 36.6279C28.7791 36.1463 29.1695 35.7558 29.6512 35.7558H34.3023C35.1051 35.7558 35.7558 35.1051 35.7558 34.3023V29.6512C35.7558 29.1695 36.1463 28.7791 36.6279 28.7791Z" fill="white"/>
</svg>
